<svg xmlns="http://www.w3.org/2000/svg" width="281.498" height="284.546" viewBox="0 0 281.49826 284.5463"><path d="M0 146.546v-138h79v276H0v-138zm45.328 105.957c4.857-3.82 4.12-13.04-1.273-15.927-8.435-4.515-17.65 4.886-13.107 13.373 2.53 4.726 9.944 6.043 14.38 2.554zm20.374-89.153L69 160.154V54.7l-2.486-2.955-2.486-2.954-17.327-.722c-21.893-.912-29.796-.155-33.834 3.243l-2.991 2.517.312 53.824c.346 59.656-.065 56.237 6.951 57.895 1.849.436 12.79.84 24.313.896l20.953.102 3.297-3.196zM20 127.046v-4.5h39v9H20v-4.5zm0-20v-4.5h39v9H20v-4.5zm0-19.5v-5h39v10H20v-5zm63 59v-138h79v276H83v-138zm45.505 105.586c3.153-3.153 4.022-6.899 2.47-10.645-3.42-8.258-14.757-7.905-17.975.56-.893 2.349-.304 5.722 1.5 8.588 2.792 4.435 10.268 5.234 14.005 1.497zm20.197-88.782l3.298-3.196V54.7l-2.486-2.955-2.486-2.954-17.327-.722c-21.88-.912-29.797-.154-33.827 3.237l-2.984 2.51.305 53.83c.338 59.665-.072 56.244 6.944 57.902 1.849.436 12.79.84 24.313.896l20.953.102 3.297-3.196zM103 127.046v-4.5h39v9h-39v-4.5zm0-20v-4.5h39v9h-39v-4.5zm0-19.5v-5h39v10h-39v-5zm100.51 194.696c-.982-3.039-37.556-270.983-37.057-271.482.685-.685 76.834-11.26 77.352-10.742.587.587 38.133 271.923 37.69 272.367-.222.222-16.287 2.577-35.7 5.233-19.412 2.656-36.781 5.053-38.597 5.325-2.069.31-3.447.048-3.689-.701zm37.93-34.673c3.29-1.25 6.06-6.896 5.154-10.503-1.107-4.413-4.96-7.52-9.326-7.52-4.619 0-7.568 1.896-9.243 5.941-3.412 8.236 4.586 15.439 13.415 12.082zm-12.94-86.583l20-2.564 3.236-3.688c2.919-3.326 3.178-4.128 2.644-8.188-.326-2.475-3.582-26.05-7.236-52.39L240.5 46.263 237 43.5l-3.5-2.765-18.5 2.372c-23.535 3.017-27.097 3.887-30.512 7.452l-2.75 2.87 7.136 50.31c3.925 27.669 7.612 52.02 8.193 54.113 1.816 6.534 3.558 6.708 31.433 3.134zm-26-32.835c-.18-.608-.57-2.523-.869-4.257-.456-2.654-.193-3.235 1.663-3.67 4.348-1.02 35.76-4.956 36.183-4.534.237.237.72 2.233 1.072 4.435l.64 4.003-9.845 1.254c-5.414.69-14.046 1.844-19.181 2.564-6.732.945-9.428 1.002-9.664.205zm-2.873-20.135c-.345-.898-.627-2.896-.627-4.44 0-3.255-1.294-2.897 21.905-6.05 16.912-2.3 17.05-2.27 17.08 3.611l.015 3.091-16.25 2.214c-8.938 1.218-17.43 2.438-18.873 2.711-1.829.346-2.813.002-3.25-1.137zM196.44 86c-.375-2.5-.515-4.7-.311-4.886.495-.455 38.099-5.686 38.382-5.34.598.733 1.158 9.772.605 9.772-.35 0-8.508 1.12-18.127 2.487-9.62 1.367-18.025 2.492-18.679 2.5-.654.007-1.495-2.032-1.87-4.533z" fill="#2c3949"/></svg>